# xmcd
#
# Track frame offsets: 
#        150
#        15332
#        31168
#        45207
#        60569
#        73660
#        87100
#        111157
#        132733
#        142202
#        153928
#        165027
#        177241
#        189539
#        201641
#        216349
#        225818
#        243744
#        260779
#        272003
#        280204
#        296348
#
# Disc length: 4057 seconds
#
# Revision: 0
# Processed by: cddbd v1.5.2PL0 Copyright (c) Steve Scherf et al.
# Submitted via: ExactAudioCopy v0.99pb5
#
DISCID=3e0fd716
DTITLE=Brian Wilson  - 21 Little Ones 
DYEAR=1900
DGENRE=
TTITLE0=Spirit of Rock'n'Roll
TTITLE1=Turning Point
TTITLE2=Just Say No
TTITLE3=Heavenly Bodies
TTITLE4=Christmas Time
TTITLE5=Walkin' The Line (Demo)
TTITLE6=Save The Day
TTITLE7=Concert Tonight
TTITLE8=Barbie
TTITLE9=This Could Be The Night
TTITLE10=Sweets For My Sweet
TTITLE11=Too Much Sugar
TTITLE12=Goodnight Irene
TTITLE13=California Girls (Live TV Appearance)
TTITLE14=God Only Knows (Live TV Appearance)
TTITLE15=Surfer Girl (Live TV Appearance)
TTITLE16=Spirit of Rock'n'Roll (Live TV Appearance)
TTITLE17=Let's Go To Heaven In My Car
TTITLE18=I'll Bet He's Nice (Demo)
TTITLE19=That Special Feeling (Demo)
TTITLE20=Still I Dream Of It (Demo)
TTITLE21=Saturday Morning In The City (Paley Sessions)
EXTD=
EXTT0=
EXTT1=
EXTT2=
EXTT3=
EXTT4=
EXTT5=
EXTT6=
EXTT7=
EXTT8=
EXTT9=
EXTT10=
EXTT11=
EXTT12=
EXTT13=
EXTT14=
EXTT15=
EXTT16=
EXTT17=
EXTT18=
EXTT19=
EXTT20=
EXTT21=
PLAYORDER=
